<?xml version="1.0" encoding="UTF-8"?>
<svg width="104.35" height="61.05" xmlns="http://www.w3.org/2000/svg" viewBox="0 0 2087.49 1221.45">
  <defs>
    <style>
      .cls-1 {
        fill: #fff;
      }

      .cls-2 {
        fill: #6841d1;
      }
    </style>
  </defs>
  <circle class="cls-2" cx="619.67" cy="605.04" r="451.99"/>
  <g>
    <path class="cls-1" d="m613.06,819.05c-46.16,0-85.8-9.26-118.95-27.79-33.15-18.53-58.83-43.88-77.02-76.05-18.21-32.18-27.3-69.06-27.3-110.66s10.24-75.71,30.71-108.23c20.48-32.5,47.61-58.5,81.41-78,33.79-19.5,71.5-29.25,113.1-29.25,53.29,0,97.5,15.6,132.6,46.8,35.1,31.2,59.14,74.1,72.15,128.7l-333.45,117-21.45-53.62,272.03-100.43-18.53,13.65c-7.8-21.45-20.81-39.98-39-55.58-18.21-15.6-41.92-23.4-71.17-23.4-24.71,0-46.65,5.85-65.81,17.55-19.18,11.7-34.29,27.79-45.34,48.26-11.06,20.48-16.58,44.36-16.58,71.66s5.68,51.68,17.06,73.13c11.37,21.45,27.3,38.19,47.78,50.21,20.47,12.04,43.71,18.04,69.71,18.04,17.55,0,34.61-3.25,51.19-9.75,16.58-6.49,32.33-14.94,47.29-25.35l40.95,67.27c-20.16,13.65-42.75,24.71-67.76,33.15-25.03,8.44-49.57,12.67-73.61,12.67Z"/>
    <path class="cls-1" d="m1127.85,1010.15c-29.91,0-56.4-3.58-79.46-10.72-23.08-7.16-43.88-16.91-62.4-29.25-18.52-12.35-36.56-26.01-54.11-40.95l53.62-62.4c21.45,19.5,43.22,34.76,65.33,45.83,22.09,11.04,46.8,16.58,74.1,16.58,30.54,0,56.38-5.04,77.51-15.11,21.11-10.09,37.05-23.89,47.77-41.44,10.73-17.55,16.41-38.02,17.06-61.43l.98-109.2,7.8,17.55c-11.7,27.96-32.83,51.52-63.38,70.69-30.56,19.16-67.61,28.76-111.15,28.76-36.41,0-70.2-9.43-101.4-28.27s-56.23-44.36-75.08-76.54c-18.86-32.17-28.28-68.4-28.28-108.71s9.75-79.61,29.25-112.13c19.5-32.5,45.34-58.01,77.51-76.54,32.18-18.53,67.11-27.79,104.81-27.79,35.74,0,68.4,7.31,97.99,21.94,29.57,14.62,51.51,33.32,65.81,56.06l-5.85,16.57,8.77-78h83.85v406.58c0,36.4-9.26,69.54-27.79,99.45-18.53,29.89-45.19,53.78-79.95,71.66-34.78,17.87-75.9,26.81-123.34,26.81Zm-139.43-406.58c0,26.01,6.34,49.73,19.01,71.18,12.67,21.45,29.57,38.36,50.7,50.7,21.12,12.35,44.36,18.52,69.71,18.52,24.04,0,45.66-4.39,64.84-13.16,19.17-8.78,35.25-20.96,48.26-36.56,13-15.6,22.09-32.82,27.3-51.68v-80.93c-5.85-19.5-15.6-36.39-29.25-50.7-13.65-14.29-29.91-25.67-48.75-34.12-18.86-8.44-39.65-12.68-62.4-12.68-25.35,0-48.6,6.02-69.71,18.04-21.13,12.04-38.03,28.44-50.7,49.24-12.67,20.81-19.01,44.85-19.01,72.15Z"/>
    <path class="cls-1" d="m1684.58,819.05c-37.71,0-72-8.13-102.86-24.38-30.88-16.24-55.42-40.13-73.61-71.66-18.21-31.52-27.3-70.03-27.3-115.54s9.42-84.49,28.28-117c18.84-32.49,44.2-57.53,76.05-75.08,31.84-17.55,66.62-26.32,104.33-26.32s69.71,8.62,96.04,25.84c26.33,17.23,45.98,37.54,58.99,60.94l-5.85,14.62,8.78-84.83h83.85v403.65h-90.67v-105.3l10.72,23.4c-3.26,6.51-9.43,14.79-18.52,24.86-9.11,10.08-20.64,20.32-34.61,30.71-13.98,10.4-30.39,19.01-49.24,25.84-18.86,6.83-40.31,10.24-64.35,10.24Zm24.38-75.08c22.74,0,43.22-4.22,61.42-12.67,18.19-8.44,33.3-20.47,45.34-36.08,12.02-15.6,20.31-33.79,24.86-54.6v-78.98c-5.21-19.5-14.31-36.56-27.3-51.19-13.01-14.62-28.61-25.99-46.8-34.12-18.21-8.12-38.02-12.19-59.47-12.19-24.71,0-47.14,5.85-67.28,17.55-20.16,11.7-36.24,27.96-48.26,48.75-12.04,20.81-18.04,45.19-18.04,73.13,0,26.01,6.17,49.73,18.52,71.18,12.34,21.45,28.92,38.36,49.73,50.7,20.79,12.35,43.22,18.52,67.28,18.52Z"/>
  </g>
</svg>